Coordinates
version=1
nRows=7
nColumns=40
inDegrees=yes

Units are S.I. units (second, meters, Newtons, ...)
Angles are in degrees.

endheader
time	pelvis_tilt	pelvis_list	pelvis_rotation	pelvis_tx	pelvis_ty	pelvis_tz	hip_flexion_r	hip_adduction_r	hip_rotation_r	knee_angle_r	knee_angle_r_beta	ankle_angle_r	subtalar_angle_r	mtp_angle_r	hip_flexion_l	hip_adduction_l	hip_rotation_l	knee_angle_l	knee_angle_l_beta	ankle_angle_l	subtalar_angle_l	mtp_angle_l	lumbar_extension	lumbar_bending	lumbar_rotation	arm_flex_r	arm_add_r	arm_rot_r	elbow_flex_r	pro_sup_r	wrist_flex_r	wrist_dev_r	arm_flex_l	arm_add_l	arm_rot_l	elbow_flex_l	pro_sup_l	wrist_flex_l	wrist_dev_l
     18.84250000	     -4.89158447	     -4.15230702	      4.98273463	      0.99650137	      0.92156104	      0.44936778	      1.30210949	     -1.80867074	    -15.76809920	     26.96771342	     26.96771342	     16.15384234	     -1.92459716	     -7.62366999	     27.10133943	     -3.40406207	     -1.60199492	     25.49315884	     25.49315884	      6.76212955	    -14.32557492	      5.00582819	     -7.86493648	      4.84685540	      3.16097028	     32.10329674	    -16.40756907	     -6.03834402	     99.17308537	     44.28133516	      0.00000000	      0.00000000	     -9.21110526	     -7.08210907	      5.80344016	     25.31911431	     44.42852153	      0.00000000	      0.00000000
     18.85485714	     -4.98637887	     -4.13482676	      4.94582514	      0.99686572	      0.92266330	      0.44659191	      2.31599937	     -2.37294518	    -15.29721450	     29.22214734	     29.22214734	     12.54042291	     -4.54120716	    -15.21581348	     26.47469022	     -3.24814375	     -1.69465765	     25.26157584	     25.26157584	      7.43020958	    -14.13357052	      5.16551290	     -7.86683795	      4.89222892	      3.35288277	     30.06021887	    -16.19584222	     -7.23899595	     98.15816862	     44.43496015	      0.00000000	      0.00000000	     -8.52462864	     -7.28820673	      5.63927666	     26.85946362	     44.58659074	      0.00000000	      0.00000000
     18.86721429	     -5.06150805	     -4.04200361	      4.87315148	      0.99705990	      0.92367841	      0.44386478	      3.78232159	     -3.19774598	    -14.94373185	     32.59554042	     32.59554042	     11.18732675	     -5.66002470	    -15.86171245	     25.77979456	     -3.05319016	     -1.96202024	     24.93204379	     24.93204379	      7.89266346	    -13.87381363	      4.92034232	     -7.90859124	      4.88202291	      3.24370863	     28.22851161	    -16.05099214	     -7.25466187	     96.84395429	     44.47732597	      0.00000000	      0.00000000	     -7.53653715	     -7.42084821	      5.54135834	     27.50761061	     44.62762749	      0.00000000	      0.00000000
     18.87957143	     -5.13160296	     -3.97775017	      4.76777411	      0.99711839	      0.92448350	      0.44130887	      5.42818413	     -3.95072336	    -14.38545056	     36.15533939	     36.15533939	      9.43053514	     -7.16627877	    -16.60754890	     25.11539697	     -2.90278946	     -2.20100522	     24.65025205	     24.65025205	      8.34514280	    -13.64381905	      4.62111161	     -7.96133632	      4.90054368	      3.21736260	     26.35124538	    -15.87677919	     -7.42752867	     95.20391322	     44.53420942	      0.00000000	      0.00000000	     -6.52845158	     -7.59571842	      5.38245981	     28.37700521	     44.67619092	      0.00000000	      0.00000000
     18.89192857	     -5.24188544	     -3.92618272	      4.64738021	      0.99693132	      0.92503371	      0.43898006	      7.32302813	     -4.60912360	    -13.60369764	     39.88902489	     39.88902489	      7.22283076	     -9.14306297	    -17.39410773	     24.54929783	     -2.78341137	     -2.46131095	     24.41834840	     24.41834840	      8.70854426	    -13.40329293	      4.27450929	     -7.97021398	      4.89164005	      3.25559066	     24.49134065	    -15.66939230	     -7.78599794	     93.14262685	     44.61123229	      0.00000000	      0.00000000	     -5.53967185	     -7.82347340	      5.15370273	     29.51661797	     44.73463596	      0.00000000	      0.00000000
     18.90428571	     -5.23919349	     -3.83252553	      4.52251029	      0.99671729	      0.92552533	      0.43671589	      9.19388874	     -5.29248305	    -12.85856362	     43.66523277	     43.66523277	      4.84555632	    -11.01743720	    -17.77160503	     23.90935631	     -2.63394504	     -2.72520514	     24.29007991	     24.29007991	      9.11948900	    -13.23332121	      3.92274522	     -8.13596446	      4.87730739	      3.19061491	     22.65053532	    -15.31230045	     -7.99656310	     91.14212907	     44.67955642	      0.00000000	      0.00000000	     -4.42200742	     -8.09094144	      4.93428470	     30.65866778	     44.79030825	      0.00000000	      0.00000000
     18.91664286	     -5.28429580	     -3.96988387	      4.35561611	      0.99634773	      0.92585786	      0.43482705	     11.19612347	     -5.48557175	    -11.82481294	     47.20798136	     47.20798136	      1.63537448	    -13.99922486	    -18.93940764	     23.36701650	     -2.76861983	     -2.96418233	     24.15946288	     24.15946288	      9.34987084	    -12.99671313	      3.02650441	     -8.16254058	      5.06968126	      2.69477553	     21.84067455	    -14.04737380	     -9.29824812	     86.66160119	     44.88539582	      0.00000000	      0.00000000	     -4.30439798	     -8.57452876	      4.25282017	     33.85010250	     44.92981996	      0.00000000	      0.00000000
